<?xml version="1.0" encoding="UTF-8"?>
<svg width="1136px" height="320px" viewBox="0 0 1136 320" version="1.1" xmlns="http://www.w3.org/2000/svg" xmlns:xlink="http://www.w3.org/1999/xlink">
    <title>logo-horizontal</title>
    <defs>
        <linearGradient x1="50%" y1="0%" x2="50%" y2="100%" id="linearGradient-1">
            <stop stop-color="#73A9D5" offset="0%"></stop>
            <stop stop-color="#4C91C9" offset="100%"></stop>
        </linearGradient>
    </defs>
    <g id="logo-horizontal" stroke="none" stroke-width="1" fill="none" fill-rule="evenodd">
        <g id="Logo" transform="translate(40.000000, 40.000000)" fill-rule="nonzero">
            <path d="M105.029696,144.079327 C119.445855,143.158219 119.979546,150.455987 119.999175,155.727541 L119.999919,231.34997 C119.999919,240.035908 115.704955,245.42064 102.029701,231.34997 C96.4891463,225.531628 83.0013297,211.673766 76.8594782,196.638858 C71.362584,183.182769 71.7199377,176.599915 72.3311167,168.148442 C74.1892376,158.632879 81.9064967,151.005319 90.0297216,147.678117 C95.478841,145.446205 98.8434672,144.474591 105.029696,144.079327 Z M231.34997,120 C240.035908,120 245.42064,124.295045 231.34997,137.970299 C225.531628,143.510854 211.673766,156.99867 196.638858,163.140522 C183.182769,168.637416 176.599915,168.280062 168.148442,167.668883 C158.632879,165.810762 151.005319,158.093503 147.678117,149.970278 C145.446205,144.521159 144.474591,141.156533 144.079327,134.970304 C143.158219,120.554145 150.455987,120.020379 155.727541,120.000744 Z M43.3611425,76.8594782 C56.8172313,71.362584 63.4000849,71.7199377 71.8515584,72.3311167 C81.3671209,74.1892376 88.9946815,81.9064967 92.3218832,90.0297216 C94.5537948,95.478841 95.5254087,98.8434672 95.9206726,105.029696 C96.8417811,119.445855 89.5440134,119.979621 84.2724589,119.999256 L83.7844995,119.999999 L83.7844995,119.999999 L83.6248089,120 L8.65003012,120 C-0.0359081877,120 -5.42063984,115.704955 8.65003012,102.029701 C14.4683721,96.4891463 28.3262342,83.0013297 43.3611425,76.8594782 Z M120.000081,8.65003012 C120.000081,-0.0359081877 124.295045,-5.42063984 137.970299,8.65003012 C143.510854,14.4683721 156.99867,28.3262342 163.140522,43.3611425 C168.637416,56.8172313 168.280062,63.4000849 167.668883,71.8515584 C165.810762,81.3671209 158.093503,88.9946815 149.970278,92.3218832 C144.521159,94.5537948 141.156533,95.5254087 134.970304,95.9206726 C120.554145,96.8417811 120.020454,89.5440134 120.000825,84.2724589 Z" id="Combined-Shape" fill="url(#linearGradient-1)"></path>
            <path d="M356.801088,187.251948 C359.290037,187.251948 361.903434,187.033766 364.641278,186.597403 C367.379123,186.161039 369.743625,185.568831 371.734784,184.820779 L371.734784,184.820779 L370.988099,167.241558 C369.619177,167.864935 368.063584,168.332468 366.321319,168.644156 C364.579055,168.955844 362.961238,169.111688 361.467868,169.111688 C356.489969,169.111688 353.285447,167.802597 351.854301,165.184416 C350.423155,162.566234 349.707582,159.262338 349.707582,155.272727 L349.707582,155.272727 L349.707582,113.568831 L372.108126,113.568831 L372.108126,95.6155844 L349.707582,95.6155844 L349.707582,69.6207792 L327.680381,69.6207792 L327.680381,95.6155844 L312,95.6155844 L312,113.568831 L327.680381,113.568831 L327.680381,155.45974 C327.680381,159.823377 328.084835,163.906494 328.893744,167.709091 C329.702652,171.511688 331.196022,174.877922 333.373852,177.807792 C335.551683,180.737662 338.50731,183.044156 342.240734,184.727273 C345.974158,186.41039 350.82761,187.251948 356.801088,187.251948 Z M435.040802,188 C441.760966,188 447.578885,186.285714 452.49456,182.857143 C457.410235,179.428571 460.863652,175.47013 462.854811,170.981818 L462.854811,170.981818 L463.228154,170.981818 L463.228154,185.381818 L484.508671,185.381818 L484.508671,95.6155844 L462.108126,95.6155844 L462.108126,144.987013 C462.108126,147.979221 461.67256,150.94026 460.801428,153.87013 C459.930296,156.8 458.654709,159.387013 456.974668,161.631169 C455.294628,163.875325 453.116797,165.714286 450.441176,167.148052 C447.765556,168.581818 444.685481,169.298701 441.200952,169.298701 C437.591976,169.298701 434.698572,168.550649 432.520741,167.054545 C430.342911,165.558442 428.631758,163.657143 427.387283,161.350649 C426.142809,159.044156 425.3339,156.457143 424.960558,153.58961 C424.587215,150.722078 424.400544,147.979221 424.400544,145.361039 L424.400544,145.361039 L424.400544,95.6155844 L402,95.6155844 L402,151.719481 C402,156.332468 402.622237,160.820779 403.866712,165.184416 C405.111187,169.548052 407.071234,173.412987 409.746855,176.779221 C412.422475,180.145455 415.844781,182.857143 420.013771,184.914286 C424.182761,186.971429 429.191772,188 435.040802,188 Z M536.400544,185.381818 L536.400544,137.319481 C536.400544,135.698701 536.711663,133.516883 537.3339,130.774026 C537.956137,128.031169 539.138388,125.350649 540.880653,122.732468 C542.622917,120.114286 545.049643,117.87013 548.16083,116 C551.272016,114.12987 555.378783,113.194805 560.481129,113.194805 C561.476709,113.194805 562.5034,113.257143 563.561204,113.381818 C564.619007,113.506494 565.894594,113.755844 567.387963,114.12987 L567.387963,114.12987 L567.387963,93.5584416 C566.641278,93.3090909 565.770146,93.1532468 564.774566,93.0909091 C563.778987,93.0285714 562.845631,92.9974026 561.974498,92.9974026 C556.00102,92.9974026 550.774226,94.6181818 546.294118,97.8597403 C541.814009,101.101299 538.32948,105.34026 535.84053,110.576623 L535.84053,110.576623 L535.467188,110.576623 L535.467188,95.6155844 L514,95.6155844 L514,185.381818 L536.400544,185.381818 Z M648.034682,188 C654.879293,188 661.00833,186.722078 666.421795,184.166234 C671.83526,181.61039 676.439816,178.181818 680.235464,173.880519 C684.031112,169.579221 686.955627,164.52987 689.009011,158.732468 C691.062394,152.935065 692.089085,146.732468 692.089085,140.124675 C692.089085,133.516883 691.031282,127.345455 688.915675,121.61039 C686.800068,115.875325 683.813329,110.888312 679.955457,106.649351 C676.097586,102.41039 671.49303,99.0753247 666.141789,96.6441558 C660.790547,94.212987 654.941516,92.9974026 648.594696,92.9974026 C644.487929,92.9974026 640.816729,93.4649351 637.581095,94.4 C634.345461,95.3350649 631.514281,96.4883117 629.087555,97.8597403 C626.66083,99.2311688 624.576335,100.727273 622.83407,102.348052 C621.091806,103.968831 619.66066,105.527273 618.540632,107.023377 L617.980619,107.023377 L617.980619,52 L595.580075,52 L595.580075,185.381818 L616.860592,185.381818 L616.860592,171.916883 L617.233934,171.916883 C620.345121,177.153247 624.66967,181.142857 630.207582,183.885714 C635.745495,186.628571 641.687861,188 648.034682,188 Z M643.554573,169.298701 C639.447807,169.298701 635.776607,168.457143 632.540972,166.774026 C629.305338,165.090909 626.536382,162.877922 624.234104,160.135065 C621.931826,157.392208 620.189561,154.306494 619.00731,150.877922 C617.82506,147.449351 617.233934,143.98961 617.233934,140.498701 C617.233934,137.007792 617.82506,133.516883 619.00731,130.025974 C620.189561,126.535065 621.931826,123.418182 624.234104,120.675325 C626.536382,117.932468 629.305338,115.688312 632.540972,113.942857 C635.776607,112.197403 639.447807,111.324675 643.554573,111.324675 C647.910235,111.324675 651.705882,112.166234 654.941516,113.849351 C658.177151,115.532468 660.852771,117.745455 662.968378,120.488312 C665.083985,123.231169 666.67069,126.316883 667.728494,129.745455 C668.786297,133.174026 669.315199,136.633766 669.315199,140.124675 C669.315199,143.615584 668.786297,147.106494 667.728494,150.597403 C666.67069,154.088312 665.083985,157.205195 662.968378,159.948052 C660.852771,162.690909 658.177151,164.935065 654.941516,166.680519 C651.705882,168.425974 647.910235,169.298701 643.554573,169.298701 Z M765.32642,188 C772.046583,188 778.393404,186.815584 784.366882,184.446753 C790.34036,182.077922 795.50493,178.805195 799.860592,174.628571 C804.216253,170.451948 807.66967,165.433766 810.220843,159.574026 C812.772016,153.714286 814.047603,147.231169 814.047603,140.124675 C814.047603,133.018182 812.772016,126.566234 810.220843,120.768831 C807.66967,114.971429 804.216253,110.015584 799.860592,105.901299 C795.50493,101.787013 790.34036,98.6077922 784.366882,96.3636364 C778.393404,94.1194805 772.046583,92.9974026 765.32642,92.9974026 C758.606256,92.9974026 752.259436,94.1194805 746.285957,96.3636364 C740.312479,98.6077922 735.147909,101.787013 730.792248,105.901299 C726.436586,110.015584 722.983169,114.971429 720.431996,120.768831 C717.880823,126.566234 716.605236,133.018182 716.605236,140.124675 C716.605236,147.231169 717.880823,153.714286 720.431996,159.574026 C722.983169,165.433766 726.436586,170.451948 730.792248,174.628571 C735.147909,178.805195 740.312479,182.077922 746.285957,184.446753 C752.259436,186.815584 758.606256,188 765.32642,188 Z M765.32642,169.298701 C760.846311,169.298701 756.988439,168.425974 753.752805,166.680519 C750.517171,164.935065 747.84155,162.690909 745.725944,159.948052 C743.610337,157.205195 742.023631,154.088312 740.965828,150.597403 C739.908024,147.106494 739.379123,143.615584 739.379123,140.124675 C739.379123,136.633766 739.908024,133.174026 740.965828,129.745455 C742.023631,126.316883 743.610337,123.231169 745.725944,120.488312 C747.84155,117.745455 750.517171,115.532468 753.752805,113.849351 C756.988439,112.166234 760.846311,111.324675 765.32642,111.324675 C769.806528,111.324675 773.6644,112.166234 776.900034,113.849351 C780.135668,115.532468 782.811289,117.745455 784.926896,120.488312 C787.042503,123.231169 788.629208,126.316883 789.687011,129.745455 C790.744815,133.174026 791.273716,136.633766 791.273716,140.124675 C791.273716,143.615584 790.744815,147.106494 789.687011,150.597403 C788.629208,154.088312 787.042503,157.205195 784.926896,159.948052 C782.811289,162.690909 780.135668,164.935065 776.900034,166.680519 C773.6644,168.425974 769.806528,169.298701 765.32642,169.298701 Z M881.711323,187.251948 C884.200272,187.251948 886.813669,187.033766 889.551513,186.597403 C892.289357,186.161039 894.653859,185.568831 896.645019,184.820779 L896.645019,184.820779 L895.898334,167.241558 C894.529412,167.864935 892.973818,168.332468 891.231554,168.644156 C889.489289,168.955844 887.871472,169.111688 886.378103,169.111688 C881.400204,169.111688 878.195682,167.802597 876.764536,165.184416 C875.33339,162.566234 874.617817,159.262338 874.617817,155.272727 L874.617817,155.272727 L874.617817,113.568831 L897.018361,113.568831 L897.018361,95.6155844 L874.617817,95.6155844 L874.617817,69.6207792 L852.590615,69.6207792 L852.590615,95.6155844 L836.910235,95.6155844 L836.910235,113.568831 L852.590615,113.568831 L852.590615,155.45974 C852.590615,159.823377 852.99507,163.906494 853.803978,167.709091 C854.612887,171.511688 856.106256,174.877922 858.284087,177.807792 C860.461918,180.737662 863.417545,183.044156 867.150969,184.727273 C870.884393,186.41039 875.737844,187.251948 881.711323,187.251948 Z M935.818182,80 C939.818182,80 943.181818,78.6712963 945.909091,76.0138889 C948.636364,73.3564815 950,70.0185185 950,66 C950,61.9814815 948.636364,58.6435185 945.909091,55.9861111 C943.181818,53.3287037 939.818182,52 935.818182,52 C931.818182,52 928.515152,53.3935185 925.909091,56.1805556 C923.30303,58.9675926 922,62.2407407 922,66 C922,69.7592593 923.30303,73.0324074 925.909091,75.8194444 C928.515152,78.6064815 931.818182,80 935.818182,80 Z M948.121727,185.381818 L948.121727,95.6155844 L925.721183,95.6155844 L925.721183,185.381818 L948.121727,185.381818 Z M1022.77253,188 C1029.49269,188 1035.74617,186.909091 1041.53298,184.727273 C1047.31979,182.545455 1052.0799,179.45974 1055.81333,175.47013 L1055.81333,175.47013 L1041.81299,161.257143 C1039.69738,163.875325 1036.89731,165.87013 1033.41278,167.241558 C1029.92826,168.612987 1026.44373,169.298701 1022.9592,169.298701 C1018.72798,169.298701 1015.02567,168.457143 1011.85226,166.774026 C1008.67885,165.090909 1006.03434,162.877922 1003.91874,160.135065 C1001.80313,157.392208 1000.21642,154.306494 999.15862,150.877922 C998.100816,147.449351 997.571914,143.98961 997.571914,140.498701 C997.571914,137.007792 998.069704,133.548052 999.065284,130.119481 C1000.06086,126.690909 1001.58535,123.605195 1003.63873,120.862338 C1005.69211,118.119481 1008.2744,115.906494 1011.38558,114.223377 C1014.49677,112.54026 1018.10575,111.698701 1022.21251,111.698701 C1025.82149,111.698701 1029.36824,112.54026 1032.85277,114.223377 C1036.3373,115.906494 1038.9507,117.994805 1040.69296,120.488312 L1040.69296,120.488312 L1056,107.023377 C1052.39102,102.65974 1047.50646,99.2311688 1041.34631,96.7376623 C1035.18616,94.2441558 1028.80823,92.9974026 1022.21251,92.9974026 C1015.6168,92.9974026 1009.42554,94.1194805 1003.63873,96.3636364 C997.851921,98.6077922 992.780687,101.787013 988.425026,105.901299 C984.069364,110.015584 980.615947,115.002597 978.064774,120.862338 C975.513601,126.722078 974.238014,133.267532 974.238014,140.498701 C974.238014,147.979221 975.513601,154.649351 978.064774,160.509091 C980.615947,166.368831 984.100476,171.355844 988.518361,175.47013 C992.936246,179.584416 998.100816,182.701299 1004.01207,184.820779 C1009.92333,186.94026 1016.17681,188 1022.77253,188 Z" id="turbotic" fill="#000000"></path>
        </g>
    </g>
</svg>