<svg width="24" height="24" viewBox="0 0 24 24" fill="none" xmlns="http://www.w3.org/2000/svg">
<g clip-path="url(#clip0_8625_118371)">
<path d="M18.75 4.5H5.25C4.83579 4.5 4.5 4.83579 4.5 5.25V18.75C4.5 19.1642 4.83579 19.5 5.25 19.5H18.75C19.1642 19.5 19.5 19.1642 19.5 18.75V5.25C19.5 4.83579 19.1642 4.5 18.75 4.5Z" stroke="black" stroke-width="2" stroke-linecap="round" stroke-linejoin="round"/>
<path d="M8.8 4H5.2C5.08954 4 5 4.33579 5 4.75V18.25C5 18.6642 5.08954 19 5.2 19H8.8C8.91046 19 9 18.6642 9 18.25V4.75C9 4.33579 8.91046 4 8.8 4Z" fill="black"/>
<path d="M10 4.5V19.5" stroke="black" stroke-width="2" stroke-linecap="round" stroke-linejoin="round"/>
</g>
<defs>
<clipPath id="clip0_8625_118371">
<rect width="24" height="24" fill="white"/>
</clipPath>
</defs>
</svg>
